<svg width="40" height="35" viewBox="0 0 40 35" fill="none" xmlns="http://www.w3.org/2000/svg">
<g clip-path="url(#clip0_4292_489)">
<mask id="mask0_4292_489" style="mask-type:luminance" maskUnits="userSpaceOnUse" x="0" y="0" width="40" height="35">
<path d="M40 0H0V34.6067H40V0Z" fill="white"/>
</mask>
<g mask="url(#mask0_4292_489)">
<path d="M6.69483 0H26.3352C28.6723 0 30.6498 0.344569 32.2678 1.03371C33.8858 1.72285 35.0842 2.66667 35.8633 3.86517C36.6723 5.03371 37.0768 6.35207 37.0768 7.82022C37.0768 9.61798 36.5076 11.0861 35.3689 12.2247C34.2604 13.3333 32.3575 13.97 30.38 14.2697C31.8782 14.779 33.3764 15.7004 34.1555 16.8989C34.9346 18.0674 35.324 19.5206 35.324 21.2584C35.324 23.5355 34.6797 25.4382 33.3914 26.9663C32.1031 28.4944 30.3651 29.633 28.1779 30.382C25.9907 31.1011 23.1889 31.7978 20.6274 32.1348L0.0429688 34.4944L6.69483 0ZM19.0543 24.1348C20.6723 24.1348 21.9757 23.9101 22.9644 23.4607C23.9532 22.9813 24.4476 22.1573 24.4476 20.9888C24.4476 20.1198 24.133 19.4607 23.5038 19.0112C22.8746 18.5618 21.9158 18.3371 20.6274 18.3371H13.7959L12.5375 24.1348H19.0543ZM21.4813 12.5393C22.8595 12.5393 23.9083 12.3146 24.6274 11.8652C25.3465 11.3858 25.706 10.6667 25.706 9.70787C25.706 8.92883 25.4514 8.34456 24.942 7.95506C24.4325 7.53557 23.6236 7.32584 22.515 7.32584H16.133L15.0094 12.5393H21.4813Z" fill="#40A6FB"/>
<path d="M37.7511 29.2132C38.9921 29.2132 39.9982 28.2071 39.9982 26.966C39.9982 25.7249 38.9921 24.7188 37.7511 24.7188C36.51 24.7188 35.5039 25.7249 35.5039 26.966C35.5039 28.2071 36.51 29.2132 37.7511 29.2132Z" fill="#CE3A42"/>
</g>
</g>
<defs>
<clipPath id="clip0_4292_489">
<rect width="40" height="34.7" fill="white"/>
</clipPath>
</defs>
</svg>
