<svg width="1520" height="434" viewBox="0 0 1520 434" fill="none" xmlns="http://www.w3.org/2000/svg">
<g clip-path="url(#clip0_4242_944)">
<path d="M-2 2H1521V434H-2V2Z" fill="#002D73"/>
<path d="M924.712 138C920.82 50.5207 940.972 -9.62792 967.11 -13.1042C967.931 -13.2109 968.759 -13.2643 969.587 -13.264C997.296 -13.264 1035.77 45.7925 1056.37 138H1078.84C1069.58 95.206 1056.01 56.3545 1039.5 26.1203C1016.22 -16.4339 990.149 -37.0784 964.04 -33.6288C917.339 -27.4221 899.324 51.3865 902.791 138H924.712Z" fill="#40A6FB"/>
<path d="M1290.24 298C1294.11 385.478 1274.07 445.626 1248.03 449.103C1232.83 451.154 1213.23 432.92 1195.56 400.396C1180.54 372.759 1168.06 337.291 1159.31 298H1136.99C1146.19 340.794 1159.7 379.645 1176.11 409.879C1197.57 449.369 1221.43 470 1245.51 470C1247.39 470.003 1249.27 469.878 1251.14 469.627C1297.57 463.42 1315.49 384.613 1312.04 298H1290.24Z" fill="#40A6FB"/>
</g>
<defs>
<clipPath id="clip0_4242_944">
<rect width="1521" height="434" fill="white"/>
</clipPath>
</defs>
</svg>
