<svg width="40" height="40" viewBox="0 0 40 40" fill="none" xmlns="http://www.w3.org/2000/svg">
<path d="M20.0396 0H19.9486C8.93129 0 0 8.93391 0 19.9545V20.0455C0 31.0661 8.93129 40 19.9486 40H20.0396C31.0569 40 39.9882 31.0661 39.9882 20.0455V19.9545C39.9882 8.93391 31.0569 0 20.0396 0Z" fill="url(#paint0_linear_919_1071)"/>
<path d="M26.1822 8.13818H13.8087C10.3903 8.13818 7.60938 10.92 7.60938 14.3394V25.6626C7.60938 29.082 10.3903 31.8638 13.8087 31.8638H26.1822C29.6006 31.8638 32.3815 29.082 32.3815 25.6626V14.3394C32.3815 10.92 29.6006 8.13818 26.1822 8.13818ZM9.79631 14.3394C9.79631 12.1266 11.5966 10.3258 13.8087 10.3258H26.1822C28.3943 10.3258 30.1946 12.1266 30.1946 14.3394V25.6626C30.1946 27.8754 28.3943 29.6762 26.1822 29.6762H13.8087C11.5966 29.6762 9.79631 27.8754 9.79631 25.6626V14.3394Z" fill="white"/>
<path d="M19.9969 25.7682C23.1757 25.7682 25.7634 23.1812 25.7634 20.0001C25.7634 16.8189 23.1771 14.2319 19.9969 14.2319C16.8167 14.2319 14.2305 16.8189 14.2305 20.0001C14.2305 23.1812 16.8167 25.7682 19.9969 25.7682ZM19.9969 16.4209C21.9709 16.4209 23.5764 18.0269 23.5764 20.0015C23.5764 21.976 21.9709 23.582 19.9969 23.582C18.0229 23.582 16.4174 21.976 16.4174 20.0015C16.4174 18.0269 18.0229 16.4209 19.9969 16.4209Z" fill="white"/>
<path d="M26.292 15.163C27.148 15.163 27.8457 14.4665 27.8457 13.6088C27.8457 12.7512 27.1494 12.0547 26.292 12.0547C25.4346 12.0547 24.7383 12.7512 24.7383 13.6088C24.7383 14.4665 25.4346 15.163 26.292 15.163Z" fill="white"/>
<defs>
<linearGradient id="paint0_linear_919_1071" x1="5.84209" y1="34.1562" x2="34.1545" y2="5.85355" gradientUnits="userSpaceOnUse">
<stop stop-color="#FAAD4F"/>
<stop offset="0.35" stop-color="#DD2A7B"/>
<stop offset="0.62" stop-color="#9537B0"/>
<stop offset="1" stop-color="#515BD4"/>
</linearGradient>
</defs>
</svg>
