<svg width="40" height="40" viewBox="0 0 40 40" fill="none" xmlns="http://www.w3.org/2000/svg">
<path d="M20.0396 0H19.9486C8.93129 0 0 8.93391 0 19.9545V20.0455C0 31.0661 8.93129 40 19.9486 40H20.0396C31.0569 40 39.9882 31.0661 39.9882 20.0455V19.9545C39.9882 8.93391 31.0569 0 20.0396 0Z" fill="#00E510"/>
<path d="M23.8845 25.8495C18.7667 25.8495 14.603 21.6832 14.6016 16.5639C14.603 15.2662 15.6593 14.2109 16.9538 14.2109C17.0869 14.2109 17.2186 14.2221 17.3447 14.2446C17.6221 14.2908 17.8855 14.3847 18.1278 14.5263C18.1629 14.5473 18.1867 14.5809 18.1923 14.6201L18.7331 18.0297C18.7401 18.0704 18.7275 18.1096 18.7008 18.139C18.4024 18.4698 18.0214 18.708 17.5969 18.8271L17.3923 18.8846L17.4694 19.0822C18.1671 20.8592 19.5877 22.2788 21.3655 22.9795L21.5631 23.0579L21.6205 22.8533C21.7396 22.4287 21.9777 22.0475 22.3084 21.749C22.3322 21.7266 22.3644 21.7154 22.3966 21.7154C22.4036 21.7154 22.4106 21.7154 22.419 21.7168L25.8276 22.2577C25.8683 22.2648 25.9019 22.2872 25.9229 22.3222C26.063 22.5646 26.1569 22.8295 26.2045 23.107C26.2269 23.2303 26.2367 23.3606 26.2367 23.4966C26.2367 24.7929 25.1818 25.8481 23.8845 25.8495Z" fill="#FDFDFD"/>
<path d="M32.9604 18.8759C32.6844 15.7564 31.2554 12.8625 28.9368 10.7282C26.6041 8.58121 23.578 7.39844 20.4132 7.39844C13.4671 7.39844 7.81555 13.0517 7.81555 19.9998C7.81555 22.3317 8.45859 24.6034 9.67604 26.5821L6.96094 32.5941L15.654 31.6678C17.1657 32.2872 18.7656 32.6011 20.4118 32.6011C20.8447 32.6011 21.2888 32.5787 21.7343 32.5324C22.1266 32.4904 22.5231 32.4287 22.9125 32.3503C28.7294 31.1745 32.9758 26.0104 33.0094 20.067V19.9998C33.0094 19.6214 32.9926 19.243 32.959 18.8759H32.9604ZM15.9889 29.029L11.1793 29.5419L12.6153 26.3593L12.3281 25.9739C12.3071 25.9459 12.2861 25.9179 12.2623 25.8856C11.0154 24.1633 10.3569 22.1285 10.3569 20.0012C10.3569 14.4545 14.8681 9.94197 20.4132 9.94197C25.608 9.94197 30.0113 13.9962 30.4358 19.1716C30.4582 19.449 30.4708 19.7279 30.4708 20.0026C30.4708 20.0811 30.4694 20.1581 30.468 20.2408C30.3615 24.8808 27.1211 28.8216 22.5875 29.825C22.2415 29.902 21.887 29.9609 21.534 29.9987C21.1669 30.0408 20.79 30.0618 20.416 30.0618C19.0836 30.0618 17.7891 29.8039 16.5661 29.2938C16.4302 29.2392 16.2971 29.1803 16.1724 29.12L15.9903 29.0318L15.9889 29.029Z" fill="#FDFDFD"/>
</svg>
