<svg width="40" height="40" viewBox="0 0 40 40" fill="none" xmlns="http://www.w3.org/2000/svg">
<path d="M19.995 40.0018C8.96933 40.0018 0 31.0298 0 20.0009C0 8.97195 8.96933 0 19.995 0C31.0207 0 39.99 8.97195 39.99 20.0009C39.99 31.0298 31.0207 40.0018 19.995 40.0018ZM19.995 1.35774C9.71858 1.35774 1.35734 9.72142 1.35734 20.0009C1.35734 30.2804 9.71858 38.6441 19.995 38.6441C30.2715 38.6441 38.6327 30.2804 38.6327 20.0009C38.6327 9.72142 30.2715 1.35774 19.995 1.35774Z" fill="#FF0209"/>
<path d="M32.1557 15.9964C32.0037 14.5286 31.6766 12.9061 30.4726 12.0535C29.5401 11.3923 28.3144 11.3678 27.1702 11.3692C24.7514 11.3705 22.3313 11.3732 19.9125 11.3746C17.586 11.3773 15.2595 11.3787 12.933 11.3814C11.9611 11.3828 11.0164 11.3067 10.1138 11.7276C9.33876 12.0888 8.73203 12.7758 8.3669 13.5402C7.86062 14.6033 7.75475 15.8076 7.69367 16.9834C7.58101 19.1246 7.59322 21.2712 7.7276 23.411C7.82669 24.9724 8.07779 26.6981 9.28447 27.6933C10.3541 28.5745 11.8634 28.6179 13.2506 28.6193C17.6538 28.6234 22.0584 28.6274 26.463 28.6302C27.0277 28.6315 27.6167 28.6207 28.1923 28.5582C29.3243 28.436 30.4034 28.1115 31.1309 27.2724C31.8652 26.4265 32.0539 25.2494 32.1652 24.1347C32.4367 21.43 32.4339 18.6996 32.1557 15.9964ZM17.3661 23.7912V16.2082L23.9302 19.999L17.3661 23.7912Z" fill="#FF0209"/>
</svg>
