<svg width="40" height="40" viewBox="0 0 40 40" fill="none" xmlns="http://www.w3.org/2000/svg">
<path d="M39.9882 20.0007C39.9882 30.102 32.5028 38.4529 22.7786 39.808C21.8693 39.9341 20.9391 40 19.9948 40C18.9049 40 17.8345 39.9131 16.7922 39.7449C7.2711 38.2118 0 29.9548 0 20.0007C0 8.95491 8.95228 0 19.9934 0C31.0345 0 39.9882 8.95491 39.9882 20.0007Z" fill="#1877F2"/>
<path d="M22.7799 16.0587V20.4157H28.1681L27.3149 26.2847H22.7799V39.8068C21.8707 39.9329 20.9404 39.9988 19.9961 39.9988C18.9062 39.9988 17.8358 39.9119 16.7935 39.7437V26.2847H11.8242V20.4157H16.7935V15.0848C16.7935 11.7775 19.4736 9.09521 22.7813 9.09521V9.09802C22.7911 9.09802 22.7995 9.09521 22.8093 9.09521H28.1695V14.1711H24.667C23.6261 14.1711 22.7813 15.0161 22.7813 16.0573L22.7799 16.0587Z" fill="white"/>
</svg>
