<svg width="24" height="25" viewBox="0 0 24 25" fill="none" xmlns="http://www.w3.org/2000/svg">
<path d="M6 7.63281H11C11.2652 7.63281 11.5196 7.73932 11.7071 7.92889C11.8946 8.11847 12 8.37559 12 8.64369C12 8.91179 11.8946 9.1689 11.7071 9.35848C11.5196 9.54806 11.2652 9.65456 11 9.65456H6C5.73478 9.65456 5.48043 9.54806 5.29289 9.35848C5.10536 9.1689 5 8.91179 5 8.64369C5 8.37559 5.10536 8.11847 5.29289 7.92889C5.48043 7.73932 5.73478 7.63281 6 7.63281ZM13 15.7198H18C18.2652 15.7198 18.5196 15.8263 18.7071 16.0159C18.8946 16.2054 19 16.4626 19 16.7307C19 16.9988 18.8946 17.2559 18.7071 17.4455C18.5196 17.635 18.2652 17.7415 18 17.7415H13C12.7348 17.7415 12.4804 17.635 12.2929 17.4455C12.1054 17.2559 12 16.9988 12 16.7307C12 16.4626 12.1054 16.2054 12.2929 16.0159C12.4804 15.8263 12.7348 15.7198 13 15.7198ZM6 11.6763H18C18.2652 11.6763 18.5196 11.7828 18.7071 11.9724C18.8946 12.162 19 12.4191 19 12.6872C19 12.9553 18.8946 13.2124 18.7071 13.402C18.5196 13.5915 18.2652 13.698 18 13.698H6C5.73478 13.698 5.48043 13.5915 5.29289 13.402C5.10536 13.2124 5 12.9553 5 12.6872C5 12.4191 5.10536 12.162 5.29289 11.9724C5.48043 11.7828 5.73478 11.6763 6 11.6763Z" fill="white"/>
</svg>
