<svg width="18" height="16" viewBox="0 0 18 16" fill="none" xmlns="http://www.w3.org/2000/svg">
<path d="M8.73717 1.3335C6.0642 1.3335 3.90234 3.42016 3.90234 6.00016C3.90234 8.78016 6.95519 12.6135 8.21225 14.0735C8.48852 14.3935 8.99273 14.3935 9.269 14.0735C10.5192 12.6135 13.572 8.78016 13.572 6.00016C13.572 3.42016 11.4101 1.3335 8.73717 1.3335ZM8.73717 7.66683C8.27922 7.66683 7.84002 7.49123 7.51619 7.17867C7.19237 6.86611 7.01045 6.44219 7.01045 6.00016C7.01045 5.55814 7.19237 5.13421 7.51619 4.82165C7.84002 4.50909 8.27922 4.3335 8.73717 4.3335C9.19513 4.3335 9.63433 4.50909 9.95815 4.82165C10.282 5.13421 10.4639 5.55814 10.4639 6.00016C10.4639 6.44219 10.282 6.86611 9.95815 7.17867C9.63433 7.49123 9.19513 7.66683 8.73717 7.66683Z" fill="white"/>
</svg>
