<svg width="18" height="16" viewBox="0 0 18 16" fill="none" xmlns="http://www.w3.org/2000/svg">
<path d="M4.53172 9.3335C4.71657 9.3335 4.89385 9.40374 5.02455 9.52876C5.15526 9.65378 5.22869 9.82335 5.22869 10.0002C5.22869 10.177 5.15526 10.3465 5.02455 10.4716C4.89385 10.5966 4.71657 10.6668 4.53172 10.6668C4.07409 10.6668 3.62093 10.5806 3.19813 10.4131C2.77533 10.2456 2.39116 10 2.06756 9.69052C1.41403 9.0654 1.04688 8.21755 1.04688 7.3335C1.04688 6.44944 1.41403 5.6016 2.06756 4.97647C2.7211 4.35135 3.60748 4.00016 4.53172 4.00016C5.22869 2.4335 6.83172 1.3335 8.71354 1.3335C11.1041 1.3335 13.0626 3.10683 13.2438 5.3535L13.5923 5.3335C14.3317 5.3335 15.0408 5.61445 15.5637 6.11455C16.0865 6.61464 16.3802 7.29292 16.3802 8.00016C16.3802 8.70741 16.0865 9.38569 15.5637 9.88578C15.0408 10.3859 14.3317 10.6668 13.5923 10.6668H12.8954C12.7105 10.6668 12.5332 10.5966 12.4025 10.4716C12.2718 10.3465 12.1984 10.177 12.1984 10.0002C12.1984 9.82335 12.2718 9.65378 12.4025 9.52876C12.5332 9.40374 12.7105 9.3335 12.8954 9.3335H13.5923C13.962 9.3335 14.3166 9.19302 14.578 8.94297C14.8394 8.69292 14.9863 8.35379 14.9863 8.00016C14.9863 7.64654 14.8394 7.3074 14.578 7.05736C14.3166 6.80731 13.962 6.66683 13.5923 6.66683H12.1984V6.00016C12.1984 5.11611 11.8312 4.26826 11.1777 3.64314C10.5242 3.01802 9.63778 2.66683 8.71354 2.66683C6.97112 2.66683 5.54233 3.88016 5.27051 5.46016C5.04051 5.38016 4.7896 5.3335 4.53172 5.3335C3.97718 5.3335 3.44535 5.54421 3.05323 5.91928C2.66111 6.29436 2.44081 6.80306 2.44081 7.3335C2.44081 7.86393 2.66111 8.37264 3.05323 8.74771C3.44535 9.12278 3.97718 9.3335 4.53172 9.3335ZM7.3196 12.0002C7.6893 12.0002 8.04385 12.1406 8.30526 12.3907C8.56668 12.6407 8.71354 12.9799 8.71354 13.3335C8.71354 13.6871 8.56668 14.0263 8.30526 14.2763C8.04385 14.5264 7.6893 14.6668 7.3196 14.6668C6.94991 14.6668 6.59535 14.5264 6.33394 14.2763C6.07252 14.0263 5.92566 13.6871 5.92566 13.3335C5.92566 12.9799 6.07252 12.6407 6.33394 12.3907C6.59535 12.1406 6.94991 12.0002 7.3196 12.0002ZM10.456 10.6668C10.7332 10.6668 10.9992 10.7722 11.1952 10.9597C11.3913 11.1473 11.5014 11.4016 11.5014 11.6668C11.5014 11.932 11.3913 12.1864 11.1952 12.3739C10.9992 12.5615 10.7332 12.6668 10.456 12.6668C10.1787 12.6668 9.91278 12.5615 9.71672 12.3739C9.52066 12.1864 9.41051 11.932 9.41051 11.6668C9.41051 11.4016 9.52066 11.1473 9.71672 10.9597C9.91278 10.7722 10.1787 10.6668 10.456 10.6668ZM7.66809 8.00016C7.94536 8.00016 8.21127 8.10552 8.40733 8.29306C8.60339 8.48059 8.71354 8.73495 8.71354 9.00016C8.71354 9.26538 8.60339 9.51974 8.40733 9.70727C8.21127 9.89481 7.94536 10.0002 7.66809 10.0002C7.39081 10.0002 7.1249 9.89481 6.92884 9.70727C6.73278 9.51974 6.62263 9.26538 6.62263 9.00016C6.62263 8.73495 6.73278 8.48059 6.92884 8.29306C7.1249 8.10552 7.39081 8.00016 7.66809 8.00016Z" fill="white"/>
</svg>
