<svg width="600" height="128" viewBox="0 0 600 128" fill="none" xmlns="http://www.w3.org/2000/svg">
<g clip-path="url(#clip0_927_2617)">
<path d="M569.682 117.513L572.666 116.442C572.679 117.105 572.845 117.66 573.163 118.106C573.495 118.539 573.922 118.801 574.445 118.89C575.044 118.992 575.58 118.922 576.052 118.68C576.537 118.425 576.849 118.055 576.989 117.57C577.142 117.047 576.989 116.588 576.53 116.193C576.071 115.798 575.159 115.364 573.795 114.892C572.902 114.586 572.233 114.057 571.786 113.305C571.34 112.539 571.219 111.717 571.423 110.837C571.64 109.932 572.111 109.135 572.838 108.446C573.565 107.757 574.426 107.305 575.421 107.088C575.956 106.935 576.524 106.89 577.123 106.954C577.735 107.018 578.296 107.152 578.806 107.356C579.329 107.56 579.782 107.904 580.165 108.389C580.547 108.873 580.789 109.46 580.891 110.148L578.022 111.258C577.958 110.62 577.684 110.174 577.2 109.919C576.715 109.651 576.122 109.626 575.421 109.842C574.668 110.085 574.292 110.563 574.292 111.277C574.279 111.481 574.394 111.685 574.636 111.889C574.879 112.093 575.223 112.291 575.669 112.482C576.511 112.814 577.187 113.113 577.697 113.381C578.207 113.636 578.679 113.955 579.112 114.338C579.559 114.707 579.852 115.141 579.992 115.638C580.145 116.123 580.171 116.69 580.069 117.341C579.89 118.552 579.278 119.566 578.233 120.382C577.2 121.186 575.956 121.626 574.502 121.702C573.036 121.779 571.85 121.421 570.945 120.631C570.039 119.84 569.618 118.801 569.682 117.513Z" fill="#DB1919"/>
<path d="M559.618 107.395L557.132 121.473H553.918L556.405 107.395H559.618Z" fill="#DB1919"/>
<path d="M517.284 117.513L520.268 116.442C520.28 117.105 520.446 117.66 520.765 118.106C521.097 118.539 521.524 118.801 522.047 118.89C522.646 118.992 523.182 118.922 523.653 118.68C524.138 118.425 524.45 118.055 524.591 117.57C524.744 117.047 524.591 116.588 524.132 116.193C523.673 115.798 522.761 115.364 521.396 114.892C520.504 114.586 519.834 114.057 519.388 113.305C518.941 112.539 518.82 111.717 519.024 110.837C519.241 109.932 519.713 109.135 520.44 108.446C521.167 107.757 522.028 107.305 523.022 107.088C523.558 106.935 524.125 106.89 524.725 106.954C525.337 107.018 525.898 107.152 526.408 107.356C526.931 107.56 527.384 107.904 527.766 108.389C528.149 108.873 528.391 109.46 528.493 110.148L525.624 111.258C525.56 110.62 525.286 110.174 524.801 109.919C524.317 109.651 523.724 109.626 523.022 109.842C522.27 110.085 521.894 110.563 521.894 111.277C521.881 111.481 521.996 111.685 522.238 111.889C522.48 112.093 522.825 112.291 523.271 112.482C524.113 112.814 524.788 113.113 525.299 113.381C525.809 113.636 526.28 113.955 526.714 114.338C527.16 114.707 527.454 115.141 527.594 115.638C527.747 116.123 527.773 116.69 527.67 117.341C527.492 118.552 526.88 119.566 525.834 120.382C524.801 121.186 523.558 121.626 522.104 121.702C520.638 121.779 519.452 121.421 518.546 120.631C517.641 119.84 517.22 118.801 517.284 117.513Z" fill="#DB1919"/>
<path d="M503.297 107.394L506.071 121.454H502.8L502.245 118.297H497.118L495.435 121.454H492.164L499.969 107.375L503.297 107.394ZM500.925 110.895L498.323 115.619H501.881L500.925 110.895Z" fill="#DB1919"/>
<path d="M456.104 117.513L459.088 116.442C459.101 117.105 459.267 117.66 459.585 118.106C459.917 118.539 460.344 118.801 460.867 118.89C461.466 118.992 462.002 118.922 462.474 118.68C462.958 118.425 463.271 118.055 463.411 117.57C463.564 117.047 463.411 116.588 462.952 116.193C462.493 115.798 461.581 115.364 460.217 114.892C459.324 114.586 458.654 114.057 458.208 113.305C457.762 112.539 457.641 111.717 457.845 110.837C458.061 109.932 458.533 109.135 459.26 108.446C459.987 107.757 460.848 107.305 461.843 107.088C462.378 106.935 462.946 106.89 463.545 106.954C464.157 107.018 464.718 107.152 465.228 107.356C465.751 107.56 466.204 107.904 466.586 108.389C466.969 108.873 467.211 109.46 467.313 110.148L464.444 111.258C464.38 110.62 464.106 110.174 463.622 109.919C463.137 109.651 462.544 109.626 461.843 109.842C461.09 110.085 460.714 110.563 460.714 111.277C460.701 111.481 460.816 111.685 461.058 111.889C461.301 112.093 461.645 112.291 462.091 112.482C462.933 112.814 463.609 113.113 464.119 113.381C464.629 113.636 465.101 113.955 465.534 114.338C465.981 114.707 466.274 115.141 466.414 115.638C466.567 116.123 466.593 116.69 466.491 117.341C466.312 118.552 465.7 119.566 464.654 120.382C463.622 121.186 462.378 121.626 460.924 121.702C459.458 121.779 458.272 121.421 457.366 120.631C456.461 119.84 456.04 118.801 456.104 117.513Z" fill="#DB1919"/>
<path d="M436.218 109.096H438.954L440.006 116.346L443.736 107.413H447.198L440.752 121.434H437.94L436.754 113.611L433.043 121.415H430.078L428.586 107.413H432.048L432.641 116.308L436.218 109.096Z" fill="#DB1919"/>
<path d="M406.305 121.415L408.791 107.375H417.839L417.323 110.263H411.431L410.972 112.884H416.252L415.754 115.734H410.456L409.958 118.584H415.907L415.391 121.415H406.305Z" fill="#DB1919"/>
<path d="M387.609 112.712L386.059 121.435H382.75L385.237 107.395H388.259L392.678 116.06L394.208 107.395H397.326L394.839 121.454H392.008L387.609 112.712Z" fill="#DB1919"/>
<path d="M492.242 68.8629L555.749 19.6387L556.259 23.5919H508.693L513.794 0H600L595.409 21.169L536.62 69.5005L535.855 65.6748H592.03L583.103 89.2667H494.155L492.242 68.8629Z" fill="#40A6FB"/>
<path d="M433.325 0H478.468L490.966 89.1392H459.595L457.427 72.051H424.398L415.089 89.2667H382.57L433.325 0ZM455.386 55.6004L451.178 22.6993L433.325 55.6004H455.386Z" fill="#40A6FB"/>
<path d="M321.743 0H366.886L379.384 89.1392H348.013L345.845 72.051H312.816L303.507 89.2667H270.988L321.743 0ZM343.804 55.6004L339.596 22.6993L321.743 55.6004H343.804Z" fill="#40A6FB"/>
<path d="M205.185 0H237.066L218.065 89.2667H186.184L205.185 0ZM209.903 63.2519H281.827L268.181 89.2667H204.42L209.903 63.2519Z" fill="#40A6FB"/>
<path d="M117.833 0H200.596L195.75 22.6993H144.868L142.573 33.6663H188.099L183.635 54.5802H138.109L135.559 66.5675H186.824L181.978 89.2667H98.832L117.833 0Z" fill="#40A6FB"/>
<path d="M19.5108 0H75.2388C81.8701 0 87.4811 0.977681 92.072 2.93305C96.6629 4.88842 100.063 7.56644 102.274 10.9671C104.569 14.2827 105.717 18.0234 105.717 22.1892C105.717 27.2901 104.101 31.4559 100.871 34.6865C97.7251 37.8321 92.3264 39.6387 86.7154 40.4888C90.9664 41.9341 95.2174 44.5484 97.428 47.949C99.638 51.2646 100.744 55.3879 100.744 60.3188C100.744 66.7798 98.9156 72.1785 95.2601 76.5144C91.604 80.8502 86.6733 84.081 80.4673 86.2062C74.2607 88.2466 66.3115 90.2232 59.0432 91.1796L0.636719 97.8746L19.5108 0ZM54.5798 68.4803C59.1707 68.4803 62.8689 67.8427 65.6746 66.5675C68.4801 65.2074 69.8828 62.8693 69.8828 59.5537C69.8828 57.0882 68.9902 55.2179 67.2048 53.9426C65.4195 52.6674 62.6988 52.0298 59.0432 52.0298H39.6595L36.0889 68.4803H54.5798ZM61.4661 35.5792C65.3768 35.5792 68.3526 34.9416 70.3929 33.6663C72.4333 32.3061 73.4535 30.2657 73.4535 27.5452C73.4535 25.3347 72.7305 23.6769 71.2856 22.5717C69.8401 21.3815 67.5447 20.7864 64.3993 20.7864H46.2908L43.1027 35.5792H61.4661Z" fill="#40A6FB"/>
</g>
<defs>
<clipPath id="clip0_927_2617">
<rect width="600" height="127.524" fill="white"/>
</clipPath>
</defs>
</svg>
