<svg width="250" height="54" viewBox="0 0 250 54" fill="none" xmlns="http://www.w3.org/2000/svg">
<path d="M237.366 48.9635L238.609 48.5172C238.615 48.7935 238.684 49.0246 238.816 49.2106C238.955 49.3913 239.133 49.5002 239.351 49.5374C239.6 49.5799 239.823 49.5507 240.02 49.4497C240.222 49.3435 240.352 49.1894 240.411 48.9875C240.474 48.7696 240.411 48.5783 240.219 48.4136C240.028 48.2489 239.648 48.0682 239.08 47.8716C238.708 47.7441 238.429 47.5236 238.243 47.2101C238.057 46.8913 238.006 46.5486 238.091 46.1819C238.182 45.8047 238.378 45.4726 238.681 45.1856C238.984 44.8987 239.343 44.7101 239.757 44.6198C239.98 44.556 240.217 44.5374 240.466 44.564C240.721 44.5905 240.955 44.6463 241.168 44.7313C241.386 44.8164 241.574 44.9598 241.734 45.1617C241.893 45.3636 241.994 45.6081 242.036 45.895L240.841 46.3573C240.814 46.0916 240.7 45.9056 240.498 45.7994C240.296 45.6878 240.049 45.6771 239.757 45.7675C239.443 45.8684 239.287 46.0677 239.287 46.3652C239.281 46.4503 239.329 46.5353 239.43 46.6203C239.531 46.7053 239.675 46.7877 239.861 46.8674C240.211 47.0055 240.493 47.1304 240.705 47.242C240.918 47.3482 241.115 47.4811 241.295 47.6405C241.481 47.7946 241.603 47.9752 241.662 48.1825C241.726 48.3844 241.736 48.6208 241.694 48.8918C241.619 49.3966 241.364 49.819 240.929 50.1591C240.498 50.4938 239.98 50.6771 239.374 50.709C238.763 50.7409 238.269 50.5921 237.892 50.2627C237.515 49.9333 237.339 49.5002 237.366 48.9635Z" fill="#DB1919"/>
<path d="M233.176 44.7476L232.14 50.6137H230.801L231.837 44.7476H233.176Z" fill="#DB1919"/>
<path d="M215.534 48.9635L216.777 48.5172C216.783 48.7935 216.852 49.0246 216.984 49.2106C217.123 49.3913 217.301 49.5002 217.518 49.5374C217.768 49.5799 217.991 49.5507 218.188 49.4497C218.39 49.3435 218.52 49.1894 218.579 48.9875C218.642 48.7696 218.579 48.5783 218.387 48.4136C218.196 48.2489 217.816 48.0682 217.247 47.8716C216.876 47.7441 216.597 47.5236 216.411 47.2101C216.225 46.8913 216.174 46.5486 216.259 46.1819C216.35 45.8047 216.546 45.4726 216.849 45.1856C217.152 44.8987 217.51 44.7101 217.925 44.6198C218.148 44.556 218.385 44.5374 218.634 44.564C218.889 44.5905 219.123 44.6463 219.336 44.7313C219.554 44.8164 219.742 44.9598 219.902 45.1617C220.061 45.3636 220.162 45.6081 220.204 45.895L219.009 46.3573C218.982 46.0916 218.868 45.9056 218.666 45.7994C218.464 45.6878 218.217 45.6771 217.925 45.7675C217.611 45.8684 217.455 46.0677 217.455 46.3652C217.449 46.4503 217.497 46.5353 217.598 46.6203C217.699 46.7053 217.843 46.7877 218.029 46.8674C218.379 47.0055 218.661 47.1304 218.873 47.242C219.086 47.3482 219.283 47.4811 219.463 47.6405C219.649 47.7946 219.771 47.9752 219.83 48.1825C219.894 48.3844 219.904 48.6208 219.862 48.8918C219.787 49.3966 219.532 49.819 219.097 50.1591C218.666 50.4938 218.148 50.6771 217.542 50.709C216.931 50.7409 216.437 50.5921 216.06 50.2627C215.683 49.9333 215.507 49.5002 215.534 48.9635Z" fill="#DB1919"/>
<path d="M209.709 44.7477L210.865 50.6058H209.502L209.271 49.2908H207.135L206.433 50.6058H205.07L208.322 44.7397L209.709 44.7477ZM208.721 46.2063L207.637 48.1749H209.119L208.721 46.2063Z" fill="#DB1919"/>
<path d="M190.042 48.9635L191.285 48.5172C191.29 48.7935 191.359 49.0246 191.492 49.2106C191.63 49.3913 191.808 49.5002 192.026 49.5374C192.276 49.5799 192.499 49.5507 192.696 49.4497C192.898 49.3435 193.028 49.1894 193.086 48.9875C193.15 48.7696 193.086 48.5783 192.895 48.4136C192.704 48.2489 192.324 48.0682 191.755 47.8716C191.383 47.7441 191.104 47.5236 190.918 47.2101C190.732 46.8913 190.682 46.5486 190.767 46.1819C190.857 45.8047 191.054 45.4726 191.357 45.1856C191.66 44.8987 192.018 44.7101 192.433 44.6198C192.656 44.556 192.892 44.5374 193.142 44.564C193.397 44.5905 193.631 44.6463 193.843 44.7313C194.061 44.8164 194.25 44.9598 194.409 45.1617C194.569 45.3636 194.67 45.6081 194.712 45.895L193.517 46.3573C193.49 46.0916 193.376 45.9056 193.174 45.7994C192.972 45.6878 192.725 45.6771 192.433 45.7675C192.119 45.8684 191.963 46.0677 191.963 46.3652C191.957 46.4503 192.005 46.5353 192.106 46.6203C192.207 46.7053 192.35 46.7877 192.536 46.8674C192.887 47.0055 193.169 47.1304 193.381 47.242C193.594 47.3482 193.79 47.4811 193.971 47.6405C194.157 47.7946 194.279 47.9752 194.338 48.1825C194.401 48.3844 194.412 48.6208 194.37 48.8918C194.295 49.3966 194.04 49.819 193.604 50.1591C193.174 50.4938 192.656 50.6771 192.05 50.709C191.439 50.7409 190.945 50.5921 190.568 50.2627C190.19 49.9333 190.015 49.5002 190.042 48.9635Z" fill="#DB1919"/>
<path d="M181.758 45.4568H182.898L183.336 48.4775L184.891 44.7554H186.333L183.647 50.5976H182.476L181.981 47.3377L180.435 50.5896H179.2L178.578 44.7554H180.021L180.268 48.4615L181.758 45.4568Z" fill="#DB1919"/>
<path d="M169.293 50.5899L170.329 44.7397H174.099L173.884 45.9433H171.429L171.238 47.0352H173.437L173.23 48.2227H171.022L170.815 49.4103H173.294L173.079 50.5899H169.293Z" fill="#DB1919"/>
<path d="M161.505 46.9633L160.859 50.5977H159.48L160.517 44.7476H161.776L163.617 48.3581L164.255 44.7476H165.554L164.518 50.6057H163.338L161.505 46.9633Z" fill="#DB1919"/>
<path d="M205.102 28.6929L231.563 8.18278L231.775 9.82997H211.956L214.081 0H250.001L248.088 8.8204L223.593 28.9586L223.274 27.3645H246.68L242.96 37.1945H205.899L205.102 28.6929Z" fill="#40A6FB"/>
<path d="M180.554 0H199.364L204.571 37.1413H191.5L190.596 30.0213H176.835L172.956 37.1945H159.406L180.554 0ZM189.746 23.1668L187.993 9.45802L180.554 23.1668H189.746Z" fill="#40A6FB"/>
<path d="M134.058 0H152.868L158.075 37.1413H145.004L144.1 30.0213H130.338L126.46 37.1945H112.91L134.058 0ZM143.25 23.1668L141.497 9.45802L134.058 23.1668H143.25Z" fill="#40A6FB"/>
<path d="M85.4952 0H98.779L90.8619 37.1945H77.5781L85.4952 0ZM87.4612 26.3549H117.429L111.744 37.1945H85.1764L87.4612 26.3549Z" fill="#40A6FB"/>
<path d="M49.0968 0H83.5814L81.5623 9.45802H60.3614L59.405 14.0276H78.3742L76.5144 22.7418H57.5453L56.4826 27.7365H77.8428L75.8237 37.1945H41.1797L49.0968 0Z" fill="#40A6FB"/>
<path d="M8.12981 0H31.3498C34.1129 0 36.4508 0.407367 38.3637 1.2221C40.2765 2.03684 41.6934 3.15268 42.6145 4.56961C43.5709 5.95112 44.0491 7.50975 44.0491 9.24548C44.0491 11.3709 43.3759 13.1066 42.03 14.4527C40.7191 15.7634 38.4697 16.5161 36.1317 16.8704C37.903 17.4726 39.6742 18.5618 40.5953 19.9787C41.5162 21.3603 41.9768 23.0783 41.9768 25.1328C41.9768 27.8249 41.2151 30.0744 39.692 31.881C38.1687 33.6876 36.1142 35.0337 33.5284 35.9192C30.9423 36.7694 27.6301 37.593 24.6017 37.9915L0.265625 40.7811L8.12981 0ZM22.7419 28.5335C24.6548 28.5335 26.1957 28.2678 27.3647 27.7365C28.5337 27.1698 29.1182 26.1955 29.1182 24.814C29.1182 23.7867 28.7462 23.0074 28.0023 22.4761C27.2585 21.9447 26.1248 21.6791 24.6017 21.6791H16.5251L15.0374 28.5335H22.7419ZM25.6112 14.8247C27.2407 14.8247 28.4806 14.559 29.3307 14.0276C30.1809 13.4609 30.606 12.6107 30.606 11.4772C30.606 10.5561 30.3047 9.86538 29.7027 9.40489C29.1004 8.90895 28.1439 8.661 26.8334 8.661H19.2882L17.9598 14.8247H25.6112Z" fill="#40A6FB"/>
</svg>
