<svg width="20" height="20" viewBox="0 0 20 20" fill="none" xmlns="http://www.w3.org/2000/svg">
<path d="M15 13.3993C14.3667 13.3993 13.8 13.6494 13.3667 14.041L7.425 10.5827C7.46667 10.391 7.5 10.1993 7.5 9.99935C7.5 9.79935 7.46667 9.60768 7.425 9.41602L13.3 5.99102C13.75 6.40768 14.3417 6.66602 15 6.66602C15.663 6.66602 16.2989 6.40262 16.7678 5.93378C17.2366 5.46494 17.5 4.82906 17.5 4.16602C17.5 3.50297 17.2366 2.86709 16.7678 2.39825C16.2989 1.92941 15.663 1.66602 15 1.66602C14.337 1.66602 13.7011 1.92941 13.2322 2.39825C12.7634 2.86709 12.5 3.50297 12.5 4.16602C12.5 4.36602 12.5333 4.55768 12.575 4.74935L6.7 8.17435C6.25 7.75768 5.65833 7.49935 5 7.49935C4.33696 7.49935 3.70107 7.76274 3.23223 8.23158C2.76339 8.70042 2.5 9.33631 2.5 9.99935C2.5 10.6624 2.76339 11.2983 3.23223 11.7671C3.70107 12.236 4.33696 12.4993 5 12.4993C5.65833 12.4993 6.25 12.241 6.7 11.8243L12.6333 15.2827C12.5917 15.4577 12.5667 15.641 12.5667 15.8327C12.5667 17.1743 13.6583 18.2577 15 18.2577C16.3417 18.2577 17.4333 17.1743 17.4333 15.8327C17.4333 15.1873 17.177 14.5684 16.7206 14.1121C16.2643 13.6557 15.6454 13.3993 15 13.3993Z" fill="white"/>
</svg>
