<svg width="20" height="20" viewBox="0 0 20 20" fill="none" xmlns="http://www.w3.org/2000/svg">
<g clip-path="url(#clip0_273_444)">
<path d="M20 10C20 4.4772 15.5228 0 10 0C4.4772 0 0 4.4772 0 10C0 14.6896 3.2288 18.6248 7.5844 19.7056V13.056H5.5224V10H7.5844V8.6832C7.5844 5.2796 9.1248 3.702 12.4664 3.702C13.1 3.702 14.1932 3.8264 14.6404 3.9504V6.7204C14.4044 6.6956 13.9944 6.6832 13.4852 6.6832C11.8456 6.6832 11.212 7.3044 11.212 8.9192V10H14.4784L13.9172 13.056H11.212V19.9268C16.1636 19.3288 20.0004 15.1128 20.0004 10H20Z" fill="black"/>
<path d="M13.9182 13.0561L14.4794 10.0001H11.213V8.91935C11.213 7.30455 11.8466 6.68335 13.4862 6.68335C13.9954 6.68335 14.4054 6.69575 14.6414 6.72055V3.95055C14.1942 3.82615 13.101 3.70215 12.4674 3.70215C9.12584 3.70215 7.58544 5.27975 7.58544 8.68335V10.0001H5.52344V13.0561H7.58544V19.7057C8.35904 19.8977 9.16824 20.0001 10.001 20.0001C10.411 20.0001 10.8154 19.9749 11.2126 19.9269V13.0561H13.9178H13.9182Z" fill="white"/>
</g>
<defs>
<clipPath id="clip0_273_444">
<rect width="20" height="20" fill="white"/>
</clipPath>
</defs>
</svg>
