<svg width="19" height="18" viewBox="0 0 19 18" fill="none" xmlns="http://www.w3.org/2000/svg">
<path d="M10.1012 3.0001L9.35118 5.2006L8.60118 3.0001C8.56074 2.88092 8.54928 2.75382 8.56776 2.62933C8.58624 2.50484 8.63412 2.38655 8.70743 2.28425C8.78074 2.18196 8.87738 2.09861 8.98933 2.04111C9.10128 1.98361 9.22532 1.95361 9.35118 1.95361C9.47703 1.95361 9.60107 1.98361 9.71302 2.04111C9.82497 2.09861 9.92161 2.18196 9.99492 2.28425C10.0682 2.38655 10.1161 2.50484 10.1346 2.62933C10.1531 2.75382 10.1416 2.88092 10.1012 3.0001ZM3.35118 8.2501L5.55168 9.0001L3.35118 9.7501C3.232 9.79054 3.10489 9.80199 2.9804 9.78352C2.85591 9.76504 2.73762 9.71716 2.63533 9.64385C2.53303 9.57053 2.44968 9.4739 2.39218 9.36195C2.33468 9.25 2.30469 9.12595 2.30469 9.0001C2.30469 8.87425 2.33468 8.7502 2.39218 8.63825C2.44968 8.5263 2.53303 8.42967 2.63533 8.35635C2.73762 8.28304 2.85591 8.23516 2.9804 8.21668C3.10489 8.19821 3.232 8.20966 3.35118 8.2501ZM8.60118 15.0001L9.35118 12.7996L10.1012 15.0001C10.1416 15.1193 10.1531 15.2464 10.1346 15.3709C10.1161 15.4954 10.0682 15.6137 9.99492 15.7159C9.92161 15.8182 9.82497 15.9016 9.71302 15.9591C9.60107 16.0166 9.47703 16.0466 9.35118 16.0466C9.22532 16.0466 9.10128 16.0166 8.98933 15.9591C8.87738 15.9016 8.78074 15.8182 8.70743 15.7159C8.63412 15.6137 8.58624 15.4954 8.56776 15.3709C8.54928 15.2464 8.56074 15.1193 8.60118 15.0001ZM15.3512 9.7486L13.1507 8.9986L15.3512 8.2486C15.4704 8.20816 15.5975 8.1967 15.7219 8.21518C15.8464 8.23366 15.9647 8.28154 16.067 8.35485C16.1693 8.42817 16.2527 8.5248 16.3102 8.63675C16.3677 8.7487 16.3977 8.87275 16.3977 8.9986C16.3977 9.12445 16.3677 9.2485 16.3102 9.36045C16.2527 9.4724 16.1693 9.56903 16.067 9.64235C15.9647 9.71566 15.8464 9.76354 15.7219 9.78202C15.5975 9.80049 15.4704 9.78904 15.3512 9.7486ZM5.63868 4.2271L6.66393 6.31285L4.57818 5.2876C4.46483 5.23214 4.36636 5.15042 4.29095 5.04924C4.21555 4.94806 4.16539 4.83034 4.14464 4.70587C4.12389 4.5814 4.13315 4.45377 4.17166 4.3336C4.21017 4.21343 4.27681 4.10419 4.36604 4.01496C4.45527 3.92574 4.56451 3.8591 4.68468 3.82059C4.80485 3.78208 4.93247 3.77281 5.05694 3.79356C5.18141 3.81431 5.29913 3.86447 5.40032 3.93988C5.5015 4.01528 5.58321 4.11375 5.63868 4.2271ZM4.57818 12.7118L6.66393 11.6866L5.63868 13.7724C5.58321 13.8857 5.5015 13.9842 5.40032 14.0596C5.29913 14.135 5.18141 14.1851 5.05694 14.2059C4.93247 14.2266 4.80485 14.2174 4.68468 14.1789C4.56451 14.1404 4.45527 14.0737 4.36604 13.9845C4.27681 13.8953 4.21017 13.786 4.17166 13.6658C4.13315 13.5457 4.12389 13.4181 4.14464 13.2936C4.16539 13.1691 4.21555 13.0514 4.29095 12.9502C4.36636 12.849 4.46483 12.7673 4.57818 12.7118ZM13.0629 13.7724L12.0377 11.6866L14.1234 12.7118C14.2368 12.7673 14.3352 12.849 14.4106 12.9502C14.4861 13.0514 14.5362 13.1691 14.557 13.2936C14.5777 13.4181 14.5684 13.5457 14.5299 13.6658C14.4914 13.786 14.4248 13.8953 14.3356 13.9845C14.2463 14.0737 14.1371 14.1404 14.0169 14.1789C13.8968 14.2174 13.7691 14.2266 13.6447 14.2059C13.5202 14.1851 13.4025 14.135 13.3013 14.0596C13.2001 13.9842 13.1184 13.8857 13.0629 13.7724ZM14.1227 5.2861L12.0362 6.3121L13.0622 4.2256C13.1176 4.11225 13.1994 4.01378 13.3005 3.93838C13.4017 3.86297 13.5194 3.81281 13.6439 3.79206C13.7684 3.77131 13.896 3.78058 14.0162 3.81909C14.1363 3.8576 14.2456 3.92424 14.3348 4.01346C14.424 4.10269 14.4907 4.21193 14.5292 4.3321C14.5677 4.45227 14.577 4.5799 14.5562 4.70437C14.5355 4.82884 14.4853 4.94656 14.4099 5.04774C14.3345 5.14892 14.236 5.23064 14.1227 5.2861ZM9.35118 12.3751C7.49043 12.3751 5.97618 10.8608 5.97618 9.0001C5.97618 7.13935 7.49043 5.6251 9.35118 5.6251C11.2119 5.6251 12.7262 7.13935 12.7262 9.0001C12.7262 10.8608 11.2119 12.3751 9.35118 12.3751ZM9.35118 7.1251C8.31693 7.1251 7.47618 7.96585 7.47618 9.0001C7.47618 10.0343 8.31693 10.8751 9.35118 10.8751C10.3854 10.8751 11.2262 10.0343 11.2262 9.0001C11.2262 7.96585 10.3854 7.1251 9.35118 7.1251Z" fill="white"/>
</svg>
