<svg width="15" height="14" viewBox="0 0 15 14" fill="none" xmlns="http://www.w3.org/2000/svg">
<path d="M2.6849 5.83317C2.53019 5.83317 2.38181 5.77171 2.27242 5.66232C2.16302 5.55292 2.10156 5.40455 2.10156 5.24984C2.10156 5.09513 2.16302 4.94675 2.27242 4.83736C2.38181 4.72796 2.53019 4.6665 2.6849 4.6665H7.35156C7.66098 4.6665 7.95773 4.54359 8.17652 4.3248C8.39531 4.106 8.51823 3.80926 8.51823 3.49984C8.51823 3.19042 8.39531 2.89367 8.17652 2.67488C7.95773 2.45609 7.66098 2.33317 7.35156 2.33317C7.03073 2.33317 6.73906 2.4615 6.52906 2.67734C6.47598 2.73399 6.41183 2.77915 6.34059 2.81002C6.26935 2.8409 6.19254 2.85683 6.1149 2.85683C6.03726 2.85683 5.96044 2.8409 5.8892 2.81002C5.81796 2.77915 5.75382 2.73399 5.70073 2.67734C5.47323 2.44984 5.47323 2.0765 5.70073 1.849C6.12656 1.429 6.7099 1.1665 7.35156 1.1665C7.9704 1.1665 8.56389 1.41234 9.00148 1.84992C9.43906 2.28751 9.6849 2.881 9.6849 3.49984C9.6849 4.11868 9.43906 4.71217 9.00148 5.14975C8.56389 5.58734 7.9704 5.83317 7.35156 5.83317H2.6849ZM11.4349 6.99984C11.5896 6.99984 11.738 6.93838 11.8474 6.82898C11.9568 6.71959 12.0182 6.57121 12.0182 6.4165C12.0182 6.26179 11.9568 6.11342 11.8474 6.00403C11.738 5.89463 11.5896 5.83317 11.4349 5.83317C11.2716 5.83317 11.1257 5.89734 11.0207 6.00234C10.9668 6.05641 10.9027 6.09932 10.8321 6.12859C10.7615 6.15786 10.6859 6.17293 10.6095 6.17293C10.5331 6.17293 10.4574 6.15786 10.3869 6.12859C10.3163 6.09932 10.2522 6.05641 10.1982 6.00234C9.97656 5.77484 9.97656 5.40734 10.1982 5.17984C10.5132 4.86484 10.9507 4.6665 11.4349 4.6665C11.899 4.6665 12.3441 4.85088 12.6723 5.17907C13.0005 5.50726 13.1849 5.95238 13.1849 6.4165C13.1849 6.88063 13.0005 7.32575 12.6723 7.65394C12.3441 7.98213 11.899 8.1665 11.4349 8.1665H3.26823C3.11352 8.1665 2.96515 8.10505 2.85575 7.99565C2.74635 7.88625 2.6849 7.73788 2.6849 7.58317C2.6849 7.42846 2.74635 7.28009 2.85575 7.17069C2.96515 7.0613 3.11352 6.99984 3.26823 6.99984H11.4349ZM10.8516 10.4998H2.6849C2.53019 10.4998 2.38181 10.4384 2.27242 10.329C2.16302 10.2196 2.10156 10.0712 2.10156 9.9165C2.10156 9.7618 2.16302 9.61342 2.27242 9.50403C2.38181 9.39463 2.53019 9.33317 2.6849 9.33317H10.8516C11.3157 9.33317 11.7608 9.51755 12.089 9.84573C12.4172 10.1739 12.6016 10.619 12.6016 11.0832C12.6016 11.5473 12.4172 11.9924 12.089 12.3206C11.7608 12.6488 11.3157 12.8332 10.8516 12.8332C10.3674 12.8332 9.9299 12.6348 9.6149 12.3198C9.39323 12.0923 9.39323 11.7248 9.6149 11.4973C9.66886 11.4433 9.73296 11.4004 9.80353 11.3711C9.8741 11.3418 9.94975 11.3267 10.0261 11.3267C10.1025 11.3267 10.1782 11.3418 10.2488 11.3711C10.3193 11.4004 10.3834 11.4433 10.4374 11.4973C10.5424 11.6023 10.6882 11.6665 10.8516 11.6665C11.0063 11.6665 11.1546 11.605 11.264 11.4957C11.3734 11.3863 11.4349 11.2379 11.4349 11.0832C11.4349 10.9285 11.3734 10.7801 11.264 10.6707C11.1546 10.5613 11.0063 10.4998 10.8516 10.4998Z" fill="white"/>
</svg>
